<?xml version="1.0" encoding="utf-8" standalone="no"?>
<!DOCTYPE svg PUBLIC "-//W3C//DTD SVG 1.1//EN"
  "http://www.w3.org/Graphics/SVG/1.1/DTD/svg11.dtd">
<svg xmlns:xlink="http://www.w3.org/1999/xlink" width="835.29pt" height="505.07445pt" viewBox="0 0 835.29 505.07445" xmlns="http://www.w3.org/2000/svg" version="1.1">
 <metadata>
  <rdf:RDF xmlns:dc="http://purl.org/dc/elements/1.1/" xmlns:cc="http://creativecommons.org/ns#" xmlns:rdf="http://www.w3.org/1999/02/22-rdf-syntax-ns#">
   <cc:Work>
    <dc:type rdf:resource="http://purl.org/dc/dcmitype/StillImage"/>
    <dc:date>2026-06-28T17:22:26.833988</dc:date>
    <dc:format>image/svg+xml</dc:format>
    <dc:creator>
     <cc:Agent>
      <dc:title>Matplotlib v3.10.8, https://matplotlib.org/</dc:title>
     </cc:Agent>
    </dc:creator>
   </cc:Work>
  </rdf:RDF>
 </metadata>
 <defs>
  <style type="text/css">*{stroke-linejoin: round; stroke-linecap: butt}</style>
 </defs>
 <g id="figure_1">
  <g id="patch_1">
   <path d="M 0 505.07445 
L 835.29 505.07445 
L 835.29 0 
L 0 0 
z
" style="fill: #ffffff"/>
  </g>
  <g id="axes_1">
   <g id="patch_2">
    <path d="M 46.89 465.1062 
L 828.09 465.1062 
L 828.09 21.5862 
L 46.89 21.5862 
z
" style="fill: #ffffff"/>
   </g>
   <g id="matplotlib.axis_1">
    <g id="xtick_1">
     <g id="line2d_1">
      <defs>
       <path id="ma0c638f0bc" d="M 0 0 
L 0 4.8 
" style="stroke: #262626"/>
      </defs>
      <g>
       <use xlink:href="#ma0c638f0bc" x="78.830338" y="465.1062" style="fill: #262626; stroke: #262626"/>
      </g>
     </g>
     <g id="text_1">
      <!-- 0 -->
      <g style="fill: #262626" transform="translate(75.894163 480.96485) scale(0.1056 -0.1056)">
       <defs>
        <path id="ArialMT-30" d="M 266 2259 
Q 266 3072 433 3567 
Q 600 4063 929 4331 
Q 1259 4600 1759 4600 
Q 2128 4600 2406 4451 
Q 2684 4303 2865 4023 
Q 3047 3744 3150 3342 
Q 3253 2941 3253 2259 
Q 3253 1453 3087 958 
Q 2922 463 2592 192 
Q 2263 -78 1759 -78 
Q 1097 -78 719 397 
Q 266 969 266 2259 
z
M 844 2259 
Q 844 1131 1108 757 
Q 1372 384 1759 384 
Q 2147 384 2411 759 
Q 2675 1134 2675 2259 
Q 2675 3391 2411 3762 
Q 2147 4134 1753 4134 
Q 1366 4134 1134 3806 
Q 844 3388 844 2259 
z
" transform="scale(0.015625)"/>
       </defs>
       <use xlink:href="#ArialMT-30"/>
      </g>
     </g>
    </g>
    <g id="xtick_2">
     <g id="line2d_2">
      <g>
       <use xlink:href="#ma0c638f0bc" x="221.580452" y="465.1062" style="fill: #262626; stroke: #262626"/>
      </g>
     </g>
     <g id="text_2">
      <!-- 200 -->
      <g style="fill: #262626" transform="translate(212.771927 480.96485) scale(0.1056 -0.1056)">
       <defs>
        <path id="ArialMT-32" d="M 3222 541 
L 3222 0 
L 194 0 
Q 188 203 259 391 
Q 375 700 629 1000 
Q 884 1300 1366 1694 
Q 2113 2306 2375 2664 
Q 2638 3022 2638 3341 
Q 2638 3675 2398 3904 
Q 2159 4134 1775 4134 
Q 1369 4134 1125 3890 
Q 881 3647 878 3216 
L 300 3275 
Q 359 3922 746 4261 
Q 1134 4600 1788 4600 
Q 2447 4600 2831 4234 
Q 3216 3869 3216 3328 
Q 3216 3053 3103 2787 
Q 2991 2522 2730 2228 
Q 2469 1934 1863 1422 
Q 1356 997 1212 845 
Q 1069 694 975 541 
L 3222 541 
z
" transform="scale(0.015625)"/>
       </defs>
       <use xlink:href="#ArialMT-32"/>
       <use xlink:href="#ArialMT-30" transform="translate(55.615234 0)"/>
       <use xlink:href="#ArialMT-30" transform="translate(111.230469 0)"/>
      </g>
     </g>
    </g>
    <g id="xtick_3">
     <g id="line2d_3">
      <g>
       <use xlink:href="#ma0c638f0bc" x="364.330566" y="465.1062" style="fill: #262626; stroke: #262626"/>
      </g>
     </g>
     <g id="text_3">
      <!-- 400 -->
      <g style="fill: #262626" transform="translate(355.522041 480.96485) scale(0.1056 -0.1056)">
       <defs>
        <path id="ArialMT-34" d="M 2069 0 
L 2069 1097 
L 81 1097 
L 81 1613 
L 2172 4581 
L 2631 4581 
L 2631 1613 
L 3250 1613 
L 3250 1097 
L 2631 1097 
L 2631 0 
L 2069 0 
z
M 2069 1613 
L 2069 3678 
L 634 1613 
L 2069 1613 
z
" transform="scale(0.015625)"/>
       </defs>
       <use xlink:href="#ArialMT-34"/>
       <use xlink:href="#ArialMT-30" transform="translate(55.615234 0)"/>
       <use xlink:href="#ArialMT-30" transform="translate(111.230469 0)"/>
      </g>
     </g>
    </g>
    <g id="xtick_4">
     <g id="line2d_4">
      <g>
       <use xlink:href="#ma0c638f0bc" x="507.080681" y="465.1062" style="fill: #262626; stroke: #262626"/>
      </g>
     </g>
     <g id="text_4">
      <!-- 600 -->
      <g style="fill: #262626" transform="translate(498.272156 480.96485) scale(0.1056 -0.1056)">
       <defs>
        <path id="ArialMT-36" d="M 3184 3459 
L 2625 3416 
Q 2550 3747 2413 3897 
Q 2184 4138 1850 4138 
Q 1581 4138 1378 3988 
Q 1113 3794 959 3422 
Q 806 3050 800 2363 
Q 1003 2672 1297 2822 
Q 1591 2972 1913 2972 
Q 2475 2972 2870 2558 
Q 3266 2144 3266 1488 
Q 3266 1056 3080 686 
Q 2894 316 2569 119 
Q 2244 -78 1831 -78 
Q 1128 -78 684 439 
Q 241 956 241 2144 
Q 241 3472 731 4075 
Q 1159 4600 1884 4600 
Q 2425 4600 2770 4297 
Q 3116 3994 3184 3459 
z
M 888 1484 
Q 888 1194 1011 928 
Q 1134 663 1356 523 
Q 1578 384 1822 384 
Q 2178 384 2434 671 
Q 2691 959 2691 1453 
Q 2691 1928 2437 2201 
Q 2184 2475 1800 2475 
Q 1419 2475 1153 2201 
Q 888 1928 888 1484 
z
" transform="scale(0.015625)"/>
       </defs>
       <use xlink:href="#ArialMT-36"/>
       <use xlink:href="#ArialMT-30" transform="translate(55.615234 0)"/>
       <use xlink:href="#ArialMT-30" transform="translate(111.230469 0)"/>
      </g>
     </g>
    </g>
    <g id="xtick_5">
     <g id="line2d_5">
      <g>
       <use xlink:href="#ma0c638f0bc" x="649.830795" y="465.1062" style="fill: #262626; stroke: #262626"/>
      </g>
     </g>
     <g id="text_5">
      <!-- 800 -->
      <g style="fill: #262626" transform="translate(641.02227 480.96485) scale(0.1056 -0.1056)">
       <defs>
        <path id="ArialMT-38" d="M 1131 2484 
Q 781 2613 612 2850 
Q 444 3088 444 3419 
Q 444 3919 803 4259 
Q 1163 4600 1759 4600 
Q 2359 4600 2725 4251 
Q 3091 3903 3091 3403 
Q 3091 3084 2923 2848 
Q 2756 2613 2416 2484 
Q 2838 2347 3058 2040 
Q 3278 1734 3278 1309 
Q 3278 722 2862 322 
Q 2447 -78 1769 -78 
Q 1091 -78 675 323 
Q 259 725 259 1325 
Q 259 1772 486 2073 
Q 713 2375 1131 2484 
z
M 1019 3438 
Q 1019 3113 1228 2906 
Q 1438 2700 1772 2700 
Q 2097 2700 2305 2904 
Q 2513 3109 2513 3406 
Q 2513 3716 2298 3927 
Q 2084 4138 1766 4138 
Q 1444 4138 1231 3931 
Q 1019 3725 1019 3438 
z
M 838 1322 
Q 838 1081 952 856 
Q 1066 631 1291 507 
Q 1516 384 1775 384 
Q 2178 384 2440 643 
Q 2703 903 2703 1303 
Q 2703 1709 2433 1975 
Q 2163 2241 1756 2241 
Q 1359 2241 1098 1978 
Q 838 1716 838 1322 
z
" transform="scale(0.015625)"/>
       </defs>
       <use xlink:href="#ArialMT-38"/>
       <use xlink:href="#ArialMT-30" transform="translate(55.615234 0)"/>
       <use xlink:href="#ArialMT-30" transform="translate(111.230469 0)"/>
      </g>
     </g>
    </g>
    <g id="xtick_6">
     <g id="line2d_6">
      <g>
       <use xlink:href="#ma0c638f0bc" x="792.580909" y="465.1062" style="fill: #262626; stroke: #262626"/>
      </g>
     </g>
     <g id="text_6">
      <!-- 1000 -->
      <g style="fill: #262626" transform="translate(780.836209 480.96485) scale(0.1056 -0.1056)">
       <defs>
        <path id="ArialMT-31" d="M 2384 0 
L 1822 0 
L 1822 3584 
Q 1619 3391 1289 3197 
Q 959 3003 697 2906 
L 697 3450 
Q 1169 3672 1522 3987 
Q 1875 4303 2022 4600 
L 2384 4600 
L 2384 0 
z
" transform="scale(0.015625)"/>
       </defs>
       <use xlink:href="#ArialMT-31"/>
       <use xlink:href="#ArialMT-30" transform="translate(55.615234 0)"/>
       <use xlink:href="#ArialMT-30" transform="translate(111.230469 0)"/>
       <use xlink:href="#ArialMT-30" transform="translate(166.845703 0)"/>
      </g>
     </g>
    </g>
    <g id="text_7">
     <!-- Number of Nodes (N) -->
     <g style="fill: #262626" transform="translate(382.7565 495.44985) scale(0.1152 -0.1152)">
      <defs>
       <path id="ArialMT-4e" d="M 488 0 
L 488 4581 
L 1109 4581 
L 3516 984 
L 3516 4581 
L 4097 4581 
L 4097 0 
L 3475 0 
L 1069 3600 
L 1069 0 
L 488 0 
z
" transform="scale(0.015625)"/>
       <path id="ArialMT-75" d="M 2597 0 
L 2597 488 
Q 2209 -75 1544 -75 
Q 1250 -75 995 37 
Q 741 150 617 320 
Q 494 491 444 738 
Q 409 903 409 1263 
L 409 3319 
L 972 3319 
L 972 1478 
Q 972 1038 1006 884 
Q 1059 663 1231 536 
Q 1403 409 1656 409 
Q 1909 409 2131 539 
Q 2353 669 2445 892 
Q 2538 1116 2538 1541 
L 2538 3319 
L 3100 3319 
L 3100 0 
L 2597 0 
z
" transform="scale(0.015625)"/>
       <path id="ArialMT-6d" d="M 422 0 
L 422 3319 
L 925 3319 
L 925 2853 
Q 1081 3097 1340 3245 
Q 1600 3394 1931 3394 
Q 2300 3394 2536 3241 
Q 2772 3088 2869 2813 
Q 3263 3394 3894 3394 
Q 4388 3394 4653 3120 
Q 4919 2847 4919 2278 
L 4919 0 
L 4359 0 
L 4359 2091 
Q 4359 2428 4304 2576 
Q 4250 2725 4106 2815 
Q 3963 2906 3769 2906 
Q 3419 2906 3187 2673 
Q 2956 2441 2956 1928 
L 2956 0 
L 2394 0 
L 2394 2156 
Q 2394 2531 2256 2718 
Q 2119 2906 1806 2906 
Q 1569 2906 1367 2781 
Q 1166 2656 1075 2415 
Q 984 2175 984 1722 
L 984 0 
L 422 0 
z
" transform="scale(0.015625)"/>
       <path id="ArialMT-62" d="M 941 0 
L 419 0 
L 419 4581 
L 981 4581 
L 981 2947 
Q 1338 3394 1891 3394 
Q 2197 3394 2470 3270 
Q 2744 3147 2920 2923 
Q 3097 2700 3197 2384 
Q 3297 2069 3297 1709 
Q 3297 856 2875 390 
Q 2453 -75 1863 -75 
Q 1275 -75 941 416 
L 941 0 
z
M 934 1684 
Q 934 1088 1097 822 
Q 1363 388 1816 388 
Q 2184 388 2453 708 
Q 2722 1028 2722 1663 
Q 2722 2313 2464 2622 
Q 2206 2931 1841 2931 
Q 1472 2931 1203 2611 
Q 934 2291 934 1684 
z
" transform="scale(0.015625)"/>
       <path id="ArialMT-65" d="M 2694 1069 
L 3275 997 
Q 3138 488 2766 206 
Q 2394 -75 1816 -75 
Q 1088 -75 661 373 
Q 234 822 234 1631 
Q 234 2469 665 2931 
Q 1097 3394 1784 3394 
Q 2450 3394 2872 2941 
Q 3294 2488 3294 1666 
Q 3294 1616 3291 1516 
L 816 1516 
Q 847 969 1125 678 
Q 1403 388 1819 388 
Q 2128 388 2347 550 
Q 2566 713 2694 1069 
z
M 847 1978 
L 2700 1978 
Q 2663 2397 2488 2606 
Q 2219 2931 1791 2931 
Q 1403 2931 1139 2672 
Q 875 2413 847 1978 
z
" transform="scale(0.015625)"/>
       <path id="ArialMT-72" d="M 416 0 
L 416 3319 
L 922 3319 
L 922 2816 
Q 1116 3169 1280 3281 
Q 1444 3394 1641 3394 
Q 1925 3394 2219 3213 
L 2025 2691 
Q 1819 2813 1613 2813 
Q 1428 2813 1281 2702 
Q 1134 2591 1072 2394 
Q 978 2094 978 1738 
L 978 0 
L 416 0 
z
" transform="scale(0.015625)"/>
       <path id="ArialMT-20" transform="scale(0.015625)"/>
       <path id="ArialMT-6f" d="M 213 1659 
Q 213 2581 725 3025 
Q 1153 3394 1769 3394 
Q 2453 3394 2887 2945 
Q 3322 2497 3322 1706 
Q 3322 1066 3130 698 
Q 2938 331 2570 128 
Q 2203 -75 1769 -75 
Q 1072 -75 642 372 
Q 213 819 213 1659 
z
M 791 1659 
Q 791 1022 1069 705 
Q 1347 388 1769 388 
Q 2188 388 2466 706 
Q 2744 1025 2744 1678 
Q 2744 2294 2464 2611 
Q 2184 2928 1769 2928 
Q 1347 2928 1069 2612 
Q 791 2297 791 1659 
z
" transform="scale(0.015625)"/>
       <path id="ArialMT-66" d="M 556 0 
L 556 2881 
L 59 2881 
L 59 3319 
L 556 3319 
L 556 3672 
Q 556 4006 616 4169 
Q 697 4388 901 4523 
Q 1106 4659 1475 4659 
Q 1713 4659 2000 4603 
L 1916 4113 
Q 1741 4144 1584 4144 
Q 1328 4144 1222 4034 
Q 1116 3925 1116 3625 
L 1116 3319 
L 1763 3319 
L 1763 2881 
L 1116 2881 
L 1116 0 
L 556 0 
z
" transform="scale(0.015625)"/>
       <path id="ArialMT-64" d="M 2575 0 
L 2575 419 
Q 2259 -75 1647 -75 
Q 1250 -75 917 144 
Q 584 363 401 755 
Q 219 1147 219 1656 
Q 219 2153 384 2558 
Q 550 2963 881 3178 
Q 1213 3394 1622 3394 
Q 1922 3394 2156 3267 
Q 2391 3141 2538 2938 
L 2538 4581 
L 3097 4581 
L 3097 0 
L 2575 0 
z
M 797 1656 
Q 797 1019 1065 703 
Q 1334 388 1700 388 
Q 2069 388 2326 689 
Q 2584 991 2584 1609 
Q 2584 2291 2321 2609 
Q 2059 2928 1675 2928 
Q 1300 2928 1048 2622 
Q 797 2316 797 1656 
z
" transform="scale(0.015625)"/>
       <path id="ArialMT-73" d="M 197 991 
L 753 1078 
Q 800 744 1014 566 
Q 1228 388 1613 388 
Q 2000 388 2187 545 
Q 2375 703 2375 916 
Q 2375 1106 2209 1216 
Q 2094 1291 1634 1406 
Q 1016 1563 777 1677 
Q 538 1791 414 1992 
Q 291 2194 291 2438 
Q 291 2659 392 2848 
Q 494 3038 669 3163 
Q 800 3259 1026 3326 
Q 1253 3394 1513 3394 
Q 1903 3394 2198 3281 
Q 2494 3169 2634 2976 
Q 2775 2784 2828 2463 
L 2278 2388 
Q 2241 2644 2061 2787 
Q 1881 2931 1553 2931 
Q 1166 2931 1000 2803 
Q 834 2675 834 2503 
Q 834 2394 903 2306 
Q 972 2216 1119 2156 
Q 1203 2125 1616 2013 
Q 2213 1853 2448 1751 
Q 2684 1650 2818 1456 
Q 2953 1263 2953 975 
Q 2953 694 2789 445 
Q 2625 197 2315 61 
Q 2006 -75 1616 -75 
Q 969 -75 630 194 
Q 291 463 197 991 
z
" transform="scale(0.015625)"/>
       <path id="ArialMT-28" d="M 1497 -1347 
Q 1031 -759 709 28 
Q 388 816 388 1659 
Q 388 2403 628 3084 
Q 909 3875 1497 4659 
L 1900 4659 
Q 1522 4009 1400 3731 
Q 1209 3300 1100 2831 
Q 966 2247 966 1656 
Q 966 153 1900 -1347 
L 1497 -1347 
z
" transform="scale(0.015625)"/>
       <path id="ArialMT-29" d="M 791 -1347 
L 388 -1347 
Q 1322 153 1322 1656 
Q 1322 2244 1188 2822 
Q 1081 3291 891 3722 
Q 769 4003 388 4659 
L 791 4659 
Q 1378 3875 1659 3084 
Q 1900 2403 1900 1659 
Q 1900 816 1576 28 
Q 1253 -759 791 -1347 
z
" transform="scale(0.015625)"/>
      </defs>
      <use xlink:href="#ArialMT-4e"/>
      <use xlink:href="#ArialMT-75" transform="translate(72.216797 0)"/>
      <use xlink:href="#ArialMT-6d" transform="translate(127.832031 0)"/>
      <use xlink:href="#ArialMT-62" transform="translate(211.132812 0)"/>
      <use xlink:href="#ArialMT-65" transform="translate(266.748047 0)"/>
      <use xlink:href="#ArialMT-72" transform="translate(322.363281 0)"/>
      <use xlink:href="#ArialMT-20" transform="translate(355.664062 0)"/>
      <use xlink:href="#ArialMT-6f" transform="translate(383.447266 0)"/>
      <use xlink:href="#ArialMT-66" transform="translate(439.0625 0)"/>
      <use xlink:href="#ArialMT-20" transform="translate(466.845703 0)"/>
      <use xlink:href="#ArialMT-4e" transform="translate(494.628906 0)"/>
      <use xlink:href="#ArialMT-6f" transform="translate(566.845703 0)"/>
      <use xlink:href="#ArialMT-64" transform="translate(622.460938 0)"/>
      <use xlink:href="#ArialMT-65" transform="translate(678.076172 0)"/>
      <use xlink:href="#ArialMT-73" transform="translate(733.691406 0)"/>
      <use xlink:href="#ArialMT-20" transform="translate(783.691406 0)"/>
      <use xlink:href="#ArialMT-28" transform="translate(811.474609 0)"/>
      <use xlink:href="#ArialMT-4e" transform="translate(844.775391 0)"/>
      <use xlink:href="#ArialMT-29" transform="translate(916.992188 0)"/>
     </g>
    </g>
   </g>
   <g id="matplotlib.axis_2">
    <g id="ytick_1">
     <g id="line2d_7">
      <defs>
       <path id="m6772fe20aa" d="M 0 0 
L -4.8 0 
" style="stroke: #262626"/>
      </defs>
      <g>
       <use xlink:href="#m6772fe20aa" x="46.89" y="351.571301" style="fill: #262626; stroke: #262626"/>
      </g>
     </g>
     <g id="text_8">
      <!-- $\mathdefault{10^{0}}$ -->
      <g style="fill: #262626" transform="translate(22.0108 357.016301) scale(0.1056 -0.1056)">
       <use xlink:href="#ArialMT-31" transform="translate(0 0.99375)"/>
       <use xlink:href="#ArialMT-30" transform="translate(55.615234 0.99375)"/>
       <use xlink:href="#ArialMT-30" transform="translate(112.972813 70.6875) scale(0.7)"/>
      </g>
     </g>
    </g>
    <g id="ytick_2">
     <g id="line2d_8">
      <g>
       <use xlink:href="#m6772fe20aa" x="46.89" y="191.963361" style="fill: #262626; stroke: #262626"/>
      </g>
     </g>
     <g id="text_9">
      <!-- $\mathdefault{10^{1}}$ -->
      <g style="fill: #262626" transform="translate(22.0108 197.408361) scale(0.1056 -0.1056)">
       <use xlink:href="#ArialMT-31" transform="translate(0 0.99375)"/>
       <use xlink:href="#ArialMT-30" transform="translate(55.615234 0.99375)"/>
       <use xlink:href="#ArialMT-31" transform="translate(112.972813 70.6875) scale(0.7)"/>
      </g>
     </g>
    </g>
    <g id="ytick_3">
     <g id="line2d_9">
      <g>
       <use xlink:href="#m6772fe20aa" x="46.89" y="32.355421" style="fill: #262626; stroke: #262626"/>
      </g>
     </g>
     <g id="text_10">
      <!-- $\mathdefault{10^{2}}$ -->
      <g style="fill: #262626" transform="translate(22.0108 37.800421) scale(0.1056 -0.1056)">
       <use xlink:href="#ArialMT-31" transform="translate(0 0.99375)"/>
       <use xlink:href="#ArialMT-30" transform="translate(55.615234 0.99375)"/>
       <use xlink:href="#ArialMT-32" transform="translate(112.972813 70.6875) scale(0.7)"/>
      </g>
     </g>
    </g>
    <g id="ytick_4">
     <g id="line2d_10">
      <defs>
       <path id="m38bb8d8e69" d="M 0 0 
L -3.2 0 
" style="stroke: #262626; stroke-width: 0.8"/>
      </defs>
      <g>
       <use xlink:href="#m38bb8d8e69" x="46.89" y="463.132464" style="fill: #262626; stroke: #262626; stroke-width: 0.8"/>
      </g>
     </g>
    </g>
    <g id="ytick_5">
     <g id="line2d_11">
      <g>
       <use xlink:href="#m38bb8d8e69" x="46.89" y="435.026901" style="fill: #262626; stroke: #262626; stroke-width: 0.8"/>
      </g>
     </g>
    </g>
    <g id="ytick_6">
     <g id="line2d_12">
      <g>
       <use xlink:href="#m38bb8d8e69" x="46.89" y="415.085686" style="fill: #262626; stroke: #262626; stroke-width: 0.8"/>
      </g>
     </g>
    </g>
    <g id="ytick_7">
     <g id="line2d_13">
      <g>
       <use xlink:href="#m38bb8d8e69" x="46.89" y="399.618079" style="fill: #262626; stroke: #262626; stroke-width: 0.8"/>
      </g>
     </g>
    </g>
    <g id="ytick_8">
     <g id="line2d_14">
      <g>
       <use xlink:href="#m38bb8d8e69" x="46.89" y="386.980123" style="fill: #262626; stroke: #262626; stroke-width: 0.8"/>
      </g>
     </g>
    </g>
    <g id="ytick_9">
     <g id="line2d_15">
      <g>
       <use xlink:href="#m38bb8d8e69" x="46.89" y="376.294884" style="fill: #262626; stroke: #262626; stroke-width: 0.8"/>
      </g>
     </g>
    </g>
    <g id="ytick_10">
     <g id="line2d_16">
      <g>
       <use xlink:href="#m38bb8d8e69" x="46.89" y="367.038909" style="fill: #262626; stroke: #262626; stroke-width: 0.8"/>
      </g>
     </g>
    </g>
    <g id="ytick_11">
     <g id="line2d_17">
      <g>
       <use xlink:href="#m38bb8d8e69" x="46.89" y="358.87456" style="fill: #262626; stroke: #262626; stroke-width: 0.8"/>
      </g>
     </g>
    </g>
    <g id="ytick_12">
     <g id="line2d_18">
      <g>
       <use xlink:href="#m38bb8d8e69" x="46.89" y="303.524524" style="fill: #262626; stroke: #262626; stroke-width: 0.8"/>
      </g>
     </g>
    </g>
    <g id="ytick_13">
     <g id="line2d_19">
      <g>
       <use xlink:href="#m38bb8d8e69" x="46.89" y="275.418961" style="fill: #262626; stroke: #262626; stroke-width: 0.8"/>
      </g>
     </g>
    </g>
    <g id="ytick_14">
     <g id="line2d_20">
      <g>
       <use xlink:href="#m38bb8d8e69" x="46.89" y="255.477746" style="fill: #262626; stroke: #262626; stroke-width: 0.8"/>
      </g>
     </g>
    </g>
    <g id="ytick_15">
     <g id="line2d_21">
      <g>
       <use xlink:href="#m38bb8d8e69" x="46.89" y="240.010139" style="fill: #262626; stroke: #262626; stroke-width: 0.8"/>
      </g>
     </g>
    </g>
    <g id="ytick_16">
     <g id="line2d_22">
      <g>
       <use xlink:href="#m38bb8d8e69" x="46.89" y="227.372183" style="fill: #262626; stroke: #262626; stroke-width: 0.8"/>
      </g>
     </g>
    </g>
    <g id="ytick_17">
     <g id="line2d_23">
      <g>
       <use xlink:href="#m38bb8d8e69" x="46.89" y="216.686944" style="fill: #262626; stroke: #262626; stroke-width: 0.8"/>
      </g>
     </g>
    </g>
    <g id="ytick_18">
     <g id="line2d_24">
      <g>
       <use xlink:href="#m38bb8d8e69" x="46.89" y="207.430969" style="fill: #262626; stroke: #262626; stroke-width: 0.8"/>
      </g>
     </g>
    </g>
    <g id="ytick_19">
     <g id="line2d_25">
      <g>
       <use xlink:href="#m38bb8d8e69" x="46.89" y="199.26662" style="fill: #262626; stroke: #262626; stroke-width: 0.8"/>
      </g>
     </g>
    </g>
    <g id="ytick_20">
     <g id="line2d_26">
      <g>
       <use xlink:href="#m38bb8d8e69" x="46.89" y="143.916584" style="fill: #262626; stroke: #262626; stroke-width: 0.8"/>
      </g>
     </g>
    </g>
    <g id="ytick_21">
     <g id="line2d_27">
      <g>
       <use xlink:href="#m38bb8d8e69" x="46.89" y="115.811021" style="fill: #262626; stroke: #262626; stroke-width: 0.8"/>
      </g>
     </g>
    </g>
    <g id="ytick_22">
     <g id="line2d_28">
      <g>
       <use xlink:href="#m38bb8d8e69" x="46.89" y="95.869806" style="fill: #262626; stroke: #262626; stroke-width: 0.8"/>
      </g>
     </g>
    </g>
    <g id="ytick_23">
     <g id="line2d_29">
      <g>
       <use xlink:href="#m38bb8d8e69" x="46.89" y="80.402199" style="fill: #262626; stroke: #262626; stroke-width: 0.8"/>
      </g>
     </g>
    </g>
    <g id="ytick_24">
     <g id="line2d_30">
      <g>
       <use xlink:href="#m38bb8d8e69" x="46.89" y="67.764243" style="fill: #262626; stroke: #262626; stroke-width: 0.8"/>
      </g>
     </g>
    </g>
    <g id="ytick_25">
     <g id="line2d_31">
      <g>
       <use xlink:href="#m38bb8d8e69" x="46.89" y="57.079004" style="fill: #262626; stroke: #262626; stroke-width: 0.8"/>
      </g>
     </g>
    </g>
    <g id="ytick_26">
     <g id="line2d_32">
      <g>
       <use xlink:href="#m38bb8d8e69" x="46.89" y="47.823029" style="fill: #262626; stroke: #262626; stroke-width: 0.8"/>
      </g>
     </g>
    </g>
    <g id="ytick_27">
     <g id="line2d_33">
      <g>
       <use xlink:href="#m38bb8d8e69" x="46.89" y="39.65868" style="fill: #262626; stroke: #262626; stroke-width: 0.8"/>
      </g>
     </g>
    </g>
    <g id="text_11">
     <!-- Runtime (seconds) -->
     <g style="fill: #262626" transform="translate(15.5862 291.6816) rotate(-90) scale(0.1152 -0.1152)">
      <defs>
       <path id="ArialMT-52" d="M 503 0 
L 503 4581 
L 2534 4581 
Q 3147 4581 3465 4457 
Q 3784 4334 3975 4021 
Q 4166 3709 4166 3331 
Q 4166 2844 3850 2509 
Q 3534 2175 2875 2084 
Q 3116 1969 3241 1856 
Q 3506 1613 3744 1247 
L 4541 0 
L 3778 0 
L 3172 953 
Q 2906 1366 2734 1584 
Q 2563 1803 2427 1890 
Q 2291 1978 2150 2013 
Q 2047 2034 1813 2034 
L 1109 2034 
L 1109 0 
L 503 0 
z
M 1109 2559 
L 2413 2559 
Q 2828 2559 3062 2645 
Q 3297 2731 3419 2920 
Q 3541 3109 3541 3331 
Q 3541 3656 3305 3865 
Q 3069 4075 2559 4075 
L 1109 4075 
L 1109 2559 
z
" transform="scale(0.015625)"/>
       <path id="ArialMT-6e" d="M 422 0 
L 422 3319 
L 928 3319 
L 928 2847 
Q 1294 3394 1984 3394 
Q 2284 3394 2536 3286 
Q 2788 3178 2913 3003 
Q 3038 2828 3088 2588 
Q 3119 2431 3119 2041 
L 3119 0 
L 2556 0 
L 2556 2019 
Q 2556 2363 2490 2533 
Q 2425 2703 2258 2804 
Q 2091 2906 1866 2906 
Q 1506 2906 1245 2678 
Q 984 2450 984 1813 
L 984 0 
L 422 0 
z
" transform="scale(0.015625)"/>
       <path id="ArialMT-74" d="M 1650 503 
L 1731 6 
Q 1494 -44 1306 -44 
Q 1000 -44 831 53 
Q 663 150 594 308 
Q 525 466 525 972 
L 525 2881 
L 113 2881 
L 113 3319 
L 525 3319 
L 525 4141 
L 1084 4478 
L 1084 3319 
L 1650 3319 
L 1650 2881 
L 1084 2881 
L 1084 941 
Q 1084 700 1114 631 
Q 1144 563 1211 522 
Q 1278 481 1403 481 
Q 1497 481 1650 503 
z
" transform="scale(0.015625)"/>
       <path id="ArialMT-69" d="M 425 3934 
L 425 4581 
L 988 4581 
L 988 3934 
L 425 3934 
z
M 425 0 
L 425 3319 
L 988 3319 
L 988 0 
L 425 0 
z
" transform="scale(0.015625)"/>
       <path id="ArialMT-63" d="M 2588 1216 
L 3141 1144 
Q 3050 572 2676 248 
Q 2303 -75 1759 -75 
Q 1078 -75 664 370 
Q 250 816 250 1647 
Q 250 2184 428 2587 
Q 606 2991 970 3192 
Q 1334 3394 1763 3394 
Q 2303 3394 2647 3120 
Q 2991 2847 3088 2344 
L 2541 2259 
Q 2463 2594 2264 2762 
Q 2066 2931 1784 2931 
Q 1359 2931 1093 2626 
Q 828 2322 828 1663 
Q 828 994 1084 691 
Q 1341 388 1753 388 
Q 2084 388 2306 591 
Q 2528 794 2588 1216 
z
" transform="scale(0.015625)"/>
      </defs>
      <use xlink:href="#ArialMT-52"/>
      <use xlink:href="#ArialMT-75" transform="translate(72.216797 0)"/>
      <use xlink:href="#ArialMT-6e" transform="translate(127.832031 0)"/>
      <use xlink:href="#ArialMT-74" transform="translate(183.447266 0)"/>
      <use xlink:href="#ArialMT-69" transform="translate(211.230469 0)"/>
      <use xlink:href="#ArialMT-6d" transform="translate(233.447266 0)"/>
      <use xlink:href="#ArialMT-65" transform="translate(316.748047 0)"/>
      <use xlink:href="#ArialMT-20" transform="translate(372.363281 0)"/>
      <use xlink:href="#ArialMT-28" transform="translate(400.146484 0)"/>
      <use xlink:href="#ArialMT-73" transform="translate(433.447266 0)"/>
      <use xlink:href="#ArialMT-65" transform="translate(483.447266 0)"/>
      <use xlink:href="#ArialMT-63" transform="translate(539.0625 0)"/>
      <use xlink:href="#ArialMT-6f" transform="translate(589.0625 0)"/>
      <use xlink:href="#ArialMT-6e" transform="translate(644.677734 0)"/>
      <use xlink:href="#ArialMT-64" transform="translate(700.292969 0)"/>
      <use xlink:href="#ArialMT-73" transform="translate(755.908203 0)"/>
      <use xlink:href="#ArialMT-29" transform="translate(805.908203 0)"/>
     </g>
    </g>
   </g>
   <g id="line2d_34">
    <path d="M 82.399091 420.489735 
L 85.967844 439.809269 
" clip-path="url(#pa697457c69)" style="fill: none; stroke: #64614f; stroke-width: 1.2; stroke-linecap: round"/>
    <defs>
     <path id="mdb096c26b2" d="M -2.5 2.5 
L 2.5 -2.5 
M -2.5 -2.5 
L 2.5 2.5 
" style="stroke: #64614f"/>
    </defs>
    <g clip-path="url(#pa697457c69)">
     <use xlink:href="#mdb096c26b2" x="82.399091" y="420.489735" style="fill: #64614f; stroke: #64614f"/>
     <use xlink:href="#mdb096c26b2" x="85.967844" y="439.809269" style="fill: #64614f; stroke: #64614f"/>
    </g>
   </g>
   <g id="line2d_35">
    <path d="M 82.399091 413.374072 
L 85.967844 439.809269 
L 150.205395 430.553294 
L 221.580452 401.018467 
L 292.955509 361.224509 
L 435.705624 302.492492 
L 507.080681 279.218095 
L 578.455738 255.8252 
L 721.205852 213.873138 
L 792.580909 194.217766 
" clip-path="url(#pa697457c69)" style="fill: none; stroke-dasharray: 4.44,1.92; stroke-dashoffset: 0; stroke: #4363d8; stroke-width: 1.2"/>
    <defs>
     <path id="m31f1697a6a" d="M 0 2.5 
C 0.663008 2.5 1.29895 2.236584 1.767767 1.767767 
C 2.236584 1.29895 2.5 0.663008 2.5 0 
C 2.5 -0.663008 2.236584 -1.29895 1.767767 -1.767767 
C 1.29895 -2.236584 0.663008 -2.5 0 -2.5 
C -0.663008 -2.5 -1.29895 -2.236584 -1.767767 -1.767767 
C -2.236584 -1.29895 -2.5 -0.663008 -2.5 0 
C -2.5 0.663008 -2.236584 1.29895 -1.767767 1.767767 
C -1.29895 2.236584 -0.663008 2.5 0 2.5 
z
" style="stroke: #4363d8"/>
    </defs>
    <g clip-path="url(#pa697457c69)">
     <use xlink:href="#m31f1697a6a" x="82.399091" y="413.374072" style="fill: #4363d8; stroke: #4363d8"/>
     <use xlink:href="#m31f1697a6a" x="85.967844" y="439.809269" style="fill: #4363d8; stroke: #4363d8"/>
     <use xlink:href="#m31f1697a6a" x="150.205395" y="430.553294" style="fill: #4363d8; stroke: #4363d8"/>
     <use xlink:href="#m31f1697a6a" x="221.580452" y="401.018467" style="fill: #4363d8; stroke: #4363d8"/>
     <use xlink:href="#m31f1697a6a" x="292.955509" y="361.224509" style="fill: #4363d8; stroke: #4363d8"/>
     <use xlink:href="#m31f1697a6a" x="435.705624" y="302.492492" style="fill: #4363d8; stroke: #4363d8"/>
     <use xlink:href="#m31f1697a6a" x="507.080681" y="279.218095" style="fill: #4363d8; stroke: #4363d8"/>
     <use xlink:href="#m31f1697a6a" x="578.455738" y="255.8252" style="fill: #4363d8; stroke: #4363d8"/>
     <use xlink:href="#m31f1697a6a" x="721.205852" y="213.873138" style="fill: #4363d8; stroke: #4363d8"/>
     <use xlink:href="#m31f1697a6a" x="792.580909" y="194.217766" style="fill: #4363d8; stroke: #4363d8"/>
    </g>
   </g>
   <g id="line2d_36">
    <path d="M 82.399091 403.907087 
L 85.967844 435.026901 
L 150.205395 418.641176 
L 221.580452 377.292266 
L 292.955509 337.221732 
L 435.705624 269.657697 
L 507.080681 242.984351 
L 578.455738 222.466694 
L 721.205852 184.979695 
L 792.580909 166.016791 
" clip-path="url(#pa697457c69)" style="fill: none; stroke-dasharray: 7.68,1.92,1.2,1.92; stroke-dashoffset: 0; stroke: #9db0f3; stroke-width: 1.2"/>
    <defs>
     <path id="m73900aa3da" d="M 0 -2.5 
L -2.5 2.5 
L 2.5 2.5 
z
" style="stroke: #9db0f3; stroke-linejoin: miter"/>
    </defs>
    <g clip-path="url(#pa697457c69)">
     <use xlink:href="#m73900aa3da" x="82.399091" y="403.907087" style="fill: #9db0f3; stroke: #9db0f3; stroke-linejoin: miter"/>
     <use xlink:href="#m73900aa3da" x="85.967844" y="435.026901" style="fill: #9db0f3; stroke: #9db0f3; stroke-linejoin: miter"/>
     <use xlink:href="#m73900aa3da" x="150.205395" y="418.641176" style="fill: #9db0f3; stroke: #9db0f3; stroke-linejoin: miter"/>
     <use xlink:href="#m73900aa3da" x="221.580452" y="377.292266" style="fill: #9db0f3; stroke: #9db0f3; stroke-linejoin: miter"/>
     <use xlink:href="#m73900aa3da" x="292.955509" y="337.221732" style="fill: #9db0f3; stroke: #9db0f3; stroke-linejoin: miter"/>
     <use xlink:href="#m73900aa3da" x="435.705624" y="269.657697" style="fill: #9db0f3; stroke: #9db0f3; stroke-linejoin: miter"/>
     <use xlink:href="#m73900aa3da" x="507.080681" y="242.984351" style="fill: #9db0f3; stroke: #9db0f3; stroke-linejoin: miter"/>
     <use xlink:href="#m73900aa3da" x="578.455738" y="222.466694" style="fill: #9db0f3; stroke: #9db0f3; stroke-linejoin: miter"/>
     <use xlink:href="#m73900aa3da" x="721.205852" y="184.979695" style="fill: #9db0f3; stroke: #9db0f3; stroke-linejoin: miter"/>
     <use xlink:href="#m73900aa3da" x="792.580909" y="166.016791" style="fill: #9db0f3; stroke: #9db0f3; stroke-linejoin: miter"/>
    </g>
   </g>
   <g id="line2d_37">
    <path d="M 82.399091 418.641176 
L 85.967844 444.9462 
L 150.205395 444.9462 
L 221.580452 442.330159 
L 292.955509 437.376849 
L 435.705624 430.553294 
L 507.080681 432.754013 
L 578.455738 430.553294 
L 721.205852 422.388945 
L 792.580909 415.085686 
" clip-path="url(#pa697457c69)" style="fill: none; stroke-dasharray: 1.2,1.98; stroke-dashoffset: 0; stroke: #911eb4; stroke-width: 1.2"/>
    <defs>
     <path id="m2078d8959a" d="M -0 3.535534 
L 3.535534 0 
L 0 -3.535534 
L -3.535534 -0 
z
" style="stroke: #911eb4; stroke-linejoin: miter"/>
    </defs>
    <g clip-path="url(#pa697457c69)">
     <use xlink:href="#m2078d8959a" x="82.399091" y="418.641176" style="fill: #911eb4; stroke: #911eb4; stroke-linejoin: miter"/>
     <use xlink:href="#m2078d8959a" x="85.967844" y="444.9462" style="fill: #911eb4; stroke: #911eb4; stroke-linejoin: miter"/>
     <use xlink:href="#m2078d8959a" x="150.205395" y="444.9462" style="fill: #911eb4; stroke: #911eb4; stroke-linejoin: miter"/>
     <use xlink:href="#m2078d8959a" x="221.580452" y="442.330159" style="fill: #911eb4; stroke: #911eb4; stroke-linejoin: miter"/>
     <use xlink:href="#m2078d8959a" x="292.955509" y="437.376849" style="fill: #911eb4; stroke: #911eb4; stroke-linejoin: miter"/>
     <use xlink:href="#m2078d8959a" x="435.705624" y="430.553294" style="fill: #911eb4; stroke: #911eb4; stroke-linejoin: miter"/>
     <use xlink:href="#m2078d8959a" x="507.080681" y="432.754013" style="fill: #911eb4; stroke: #911eb4; stroke-linejoin: miter"/>
     <use xlink:href="#m2078d8959a" x="578.455738" y="430.553294" style="fill: #911eb4; stroke: #911eb4; stroke-linejoin: miter"/>
     <use xlink:href="#m2078d8959a" x="721.205852" y="422.388945" style="fill: #911eb4; stroke: #911eb4; stroke-linejoin: miter"/>
     <use xlink:href="#m2078d8959a" x="792.580909" y="415.085686" style="fill: #911eb4; stroke: #911eb4; stroke-linejoin: miter"/>
    </g>
   </g>
   <g id="line2d_38">
    <path d="M 82.399091 437.376849 
L 85.967844 439.809269 
L 150.205395 442.330159 
L 221.580452 442.330159 
L 292.955509 435.026901 
L 435.705624 406.921338 
L 507.080681 393.011477 
L 578.455738 383.598143 
L 721.205852 352.971689 
L 792.580909 337.787587 
" clip-path="url(#pa697457c69)" style="fill: none; stroke: #247878; stroke-width: 1.2; stroke-linecap: round"/>
    <defs>
     <path id="m8b33dd2676" d="M -2.5 2.5 
L 2.5 2.5 
L 2.5 -2.5 
L -2.5 -2.5 
z
" style="stroke: #247878; stroke-linejoin: miter"/>
    </defs>
    <g clip-path="url(#pa697457c69)">
     <use xlink:href="#m8b33dd2676" x="82.399091" y="437.376849" style="fill: #247878; stroke: #247878; stroke-linejoin: miter"/>
     <use xlink:href="#m8b33dd2676" x="85.967844" y="439.809269" style="fill: #247878; stroke: #247878; stroke-linejoin: miter"/>
     <use xlink:href="#m8b33dd2676" x="150.205395" y="442.330159" style="fill: #247878; stroke: #247878; stroke-linejoin: miter"/>
     <use xlink:href="#m8b33dd2676" x="221.580452" y="442.330159" style="fill: #247878; stroke: #247878; stroke-linejoin: miter"/>
     <use xlink:href="#m8b33dd2676" x="292.955509" y="435.026901" style="fill: #247878; stroke: #247878; stroke-linejoin: miter"/>
     <use xlink:href="#m8b33dd2676" x="435.705624" y="406.921338" style="fill: #247878; stroke: #247878; stroke-linejoin: miter"/>
     <use xlink:href="#m8b33dd2676" x="507.080681" y="393.011477" style="fill: #247878; stroke: #247878; stroke-linejoin: miter"/>
     <use xlink:href="#m8b33dd2676" x="578.455738" y="383.598143" style="fill: #247878; stroke: #247878; stroke-linejoin: miter"/>
     <use xlink:href="#m8b33dd2676" x="721.205852" y="352.971689" style="fill: #247878; stroke: #247878; stroke-linejoin: miter"/>
     <use xlink:href="#m8b33dd2676" x="792.580909" y="337.787587" style="fill: #247878; stroke: #247878; stroke-linejoin: miter"/>
    </g>
   </g>
   <g id="line2d_39">
    <path d="M 82.399091 432.754013 
L 85.967844 422.388945 
L 150.205395 237.961216 
L 221.580452 187.079403 
L 292.955509 156.790618 
L 435.705624 112.231274 
L 507.080681 94.056827 
L 578.455738 72.176262 
L 721.205852 53.114762 
L 792.580909 41.7462 
" clip-path="url(#pa697457c69)" style="fill: none; stroke-dasharray: 4.44,1.92; stroke-dashoffset: 0; stroke: #77aa82; stroke-width: 1.2"/>
    <defs>
     <path id="m0c706094c6" d="M -0 2.5 
L 2.5 -2.5 
L -2.5 -2.5 
z
" style="stroke: #77aa82; stroke-linejoin: miter"/>
    </defs>
    <g clip-path="url(#pa697457c69)">
     <use xlink:href="#m0c706094c6" x="82.399091" y="432.754013" style="fill: #77aa82; stroke: #77aa82; stroke-linejoin: miter"/>
     <use xlink:href="#m0c706094c6" x="85.967844" y="422.388945" style="fill: #77aa82; stroke: #77aa82; stroke-linejoin: miter"/>
     <use xlink:href="#m0c706094c6" x="150.205395" y="237.961216" style="fill: #77aa82; stroke: #77aa82; stroke-linejoin: miter"/>
     <use xlink:href="#m0c706094c6" x="221.580452" y="187.079403" style="fill: #77aa82; stroke: #77aa82; stroke-linejoin: miter"/>
     <use xlink:href="#m0c706094c6" x="292.955509" y="156.790618" style="fill: #77aa82; stroke: #77aa82; stroke-linejoin: miter"/>
     <use xlink:href="#m0c706094c6" x="435.705624" y="112.231274" style="fill: #77aa82; stroke: #77aa82; stroke-linejoin: miter"/>
     <use xlink:href="#m0c706094c6" x="507.080681" y="94.056827" style="fill: #77aa82; stroke: #77aa82; stroke-linejoin: miter"/>
     <use xlink:href="#m0c706094c6" x="578.455738" y="72.176262" style="fill: #77aa82; stroke: #77aa82; stroke-linejoin: miter"/>
     <use xlink:href="#m0c706094c6" x="721.205852" y="53.114762" style="fill: #77aa82; stroke: #77aa82; stroke-linejoin: miter"/>
     <use xlink:href="#m0c706094c6" x="792.580909" y="41.7462" style="fill: #77aa82; stroke: #77aa82; stroke-linejoin: miter"/>
    </g>
   </g>
   <g id="line2d_40">
    <path d="M 82.399091 405.397829 
L 85.967844 420.489735 
L 150.205395 354.400953 
L 221.580452 315.198774 
L 292.955509 264.733721 
L 435.705624 187.533091 
L 507.080681 163.719303 
L 578.455738 139.975726 
L 721.205852 101.630723 
L 792.580909 89.29472 
" clip-path="url(#pa697457c69)" style="fill: none; stroke-dasharray: 7.68,1.92,1.2,1.92; stroke-dashoffset: 0; stroke: #5387bf; stroke-width: 1.2"/>
    <defs>
     <path id="m912c68876d" d="M 0 -2.5 
L -0.561285 -0.772542 
L -2.377641 -0.772542 
L -0.908178 0.295085 
L -1.469463 2.022542 
L -0 0.954915 
L 1.469463 2.022542 
L 0.908178 0.295085 
L 2.377641 -0.772542 
L 0.561285 -0.772542 
z
" style="stroke: #5387bf; stroke-linejoin: bevel"/>
    </defs>
    <g clip-path="url(#pa697457c69)">
     <use xlink:href="#m912c68876d" x="82.399091" y="405.397829" style="fill: #5387bf; stroke: #5387bf; stroke-linejoin: bevel"/>
     <use xlink:href="#m912c68876d" x="85.967844" y="420.489735" style="fill: #5387bf; stroke: #5387bf; stroke-linejoin: bevel"/>
     <use xlink:href="#m912c68876d" x="150.205395" y="354.400953" style="fill: #5387bf; stroke: #5387bf; stroke-linejoin: bevel"/>
     <use xlink:href="#m912c68876d" x="221.580452" y="315.198774" style="fill: #5387bf; stroke: #5387bf; stroke-linejoin: bevel"/>
     <use xlink:href="#m912c68876d" x="292.955509" y="264.733721" style="fill: #5387bf; stroke: #5387bf; stroke-linejoin: bevel"/>
     <use xlink:href="#m912c68876d" x="435.705624" y="187.533091" style="fill: #5387bf; stroke: #5387bf; stroke-linejoin: bevel"/>
     <use xlink:href="#m912c68876d" x="507.080681" y="163.719303" style="fill: #5387bf; stroke: #5387bf; stroke-linejoin: bevel"/>
     <use xlink:href="#m912c68876d" x="578.455738" y="139.975726" style="fill: #5387bf; stroke: #5387bf; stroke-linejoin: bevel"/>
     <use xlink:href="#m912c68876d" x="721.205852" y="101.630723" style="fill: #5387bf; stroke: #5387bf; stroke-linejoin: bevel"/>
     <use xlink:href="#m912c68876d" x="792.580909" y="89.29472" style="fill: #5387bf; stroke: #5387bf; stroke-linejoin: bevel"/>
    </g>
   </g>
   <g id="patch_3">
    <path d="M 46.89 465.1062 
L 46.89 21.5862 
" style="fill: none; stroke: #262626; stroke-linejoin: miter; stroke-linecap: square"/>
   </g>
   <g id="patch_4">
    <path d="M 46.89 465.1062 
L 828.09 465.1062 
" style="fill: none; stroke: #262626; stroke-linejoin: miter; stroke-linecap: square"/>
   </g>
   <g id="patch_5">
    <path d="M 86.967844 203.686681 
Q 86.967844 311.703281 86.967844 419.71988 
L 88.467844 419.71988 
Q 87.217844 425.720319 85.967844 431.720758 
Q 84.717844 425.720319 83.467844 419.71988 
L 84.967844 419.71988 
Q 84.967844 311.703281 84.967844 203.686681 
L 86.967844 203.686681 
z
" style="stroke: #ffffff; stroke-width: 0.8; stroke-linecap: round"/>
   </g>
   <g id="text_12">
    <!-- Branch and Bound failed -->
    <g transform="translate(85.967844 181.400549) scale(0.1 -0.1)">
     <defs>
      <path id="Arial-BoldMT-42" d="M 469 4581 
L 2300 4581 
Q 2844 4581 3111 4536 
Q 3378 4491 3589 4347 
Q 3800 4203 3940 3964 
Q 4081 3725 4081 3428 
Q 4081 3106 3907 2837 
Q 3734 2569 3438 2434 
Q 3856 2313 4081 2019 
Q 4306 1725 4306 1328 
Q 4306 1016 4161 720 
Q 4016 425 3764 248 
Q 3513 72 3144 31 
Q 2913 6 2028 0 
L 469 0 
L 469 4581 
z
M 1394 3819 
L 1394 2759 
L 2000 2759 
Q 2541 2759 2672 2775 
Q 2909 2803 3045 2939 
Q 3181 3075 3181 3297 
Q 3181 3509 3064 3642 
Q 2947 3775 2716 3803 
Q 2578 3819 1925 3819 
L 1394 3819 
z
M 1394 1997 
L 1394 772 
L 2250 772 
Q 2750 772 2884 800 
Q 3091 838 3220 983 
Q 3350 1128 3350 1372 
Q 3350 1578 3250 1722 
Q 3150 1866 2961 1931 
Q 2772 1997 2141 1997 
L 1394 1997 
z
" transform="scale(0.015625)"/>
      <path id="Arial-BoldMT-72" d="M 1300 0 
L 422 0 
L 422 3319 
L 1238 3319 
L 1238 2847 
Q 1447 3181 1614 3287 
Q 1781 3394 1994 3394 
Q 2294 3394 2572 3228 
L 2300 2463 
Q 2078 2606 1888 2606 
Q 1703 2606 1575 2504 
Q 1447 2403 1373 2137 
Q 1300 1872 1300 1025 
L 1300 0 
z
" transform="scale(0.015625)"/>
      <path id="Arial-BoldMT-61" d="M 1116 2306 
L 319 2450 
Q 453 2931 781 3162 
Q 1109 3394 1756 3394 
Q 2344 3394 2631 3255 
Q 2919 3116 3036 2902 
Q 3153 2688 3153 2116 
L 3144 1091 
Q 3144 653 3186 445 
Q 3228 238 3344 0 
L 2475 0 
Q 2441 88 2391 259 
Q 2369 338 2359 363 
Q 2134 144 1878 34 
Q 1622 -75 1331 -75 
Q 819 -75 523 203 
Q 228 481 228 906 
Q 228 1188 362 1408 
Q 497 1628 739 1745 
Q 981 1863 1438 1950 
Q 2053 2066 2291 2166 
L 2291 2253 
Q 2291 2506 2166 2614 
Q 2041 2722 1694 2722 
Q 1459 2722 1328 2630 
Q 1197 2538 1116 2306 
z
M 2291 1594 
Q 2122 1538 1756 1459 
Q 1391 1381 1278 1306 
Q 1106 1184 1106 997 
Q 1106 813 1243 678 
Q 1381 544 1594 544 
Q 1831 544 2047 700 
Q 2206 819 2256 991 
Q 2291 1103 2291 1419 
L 2291 1594 
z
" transform="scale(0.015625)"/>
      <path id="Arial-BoldMT-6e" d="M 3478 0 
L 2600 0 
L 2600 1694 
Q 2600 2231 2544 2389 
Q 2488 2547 2361 2634 
Q 2234 2722 2056 2722 
Q 1828 2722 1647 2597 
Q 1466 2472 1398 2265 
Q 1331 2059 1331 1503 
L 1331 0 
L 453 0 
L 453 3319 
L 1269 3319 
L 1269 2831 
Q 1703 3394 2363 3394 
Q 2653 3394 2893 3289 
Q 3134 3184 3257 3021 
Q 3381 2859 3429 2653 
Q 3478 2447 3478 2063 
L 3478 0 
z
" transform="scale(0.015625)"/>
      <path id="Arial-BoldMT-63" d="M 3353 2338 
L 2488 2181 
Q 2444 2441 2289 2572 
Q 2134 2703 1888 2703 
Q 1559 2703 1364 2476 
Q 1169 2250 1169 1719 
Q 1169 1128 1367 884 
Q 1566 641 1900 641 
Q 2150 641 2309 783 
Q 2469 925 2534 1272 
L 3397 1125 
Q 3263 531 2881 228 
Q 2500 -75 1859 -75 
Q 1131 -75 698 384 
Q 266 844 266 1656 
Q 266 2478 700 2936 
Q 1134 3394 1875 3394 
Q 2481 3394 2839 3133 
Q 3197 2872 3353 2338 
z
" transform="scale(0.015625)"/>
      <path id="Arial-BoldMT-68" d="M 1334 4581 
L 1334 2897 
Q 1759 3394 2350 3394 
Q 2653 3394 2897 3281 
Q 3141 3169 3264 2994 
Q 3388 2819 3433 2606 
Q 3478 2394 3478 1947 
L 3478 0 
L 2600 0 
L 2600 1753 
Q 2600 2275 2550 2415 
Q 2500 2556 2373 2639 
Q 2247 2722 2056 2722 
Q 1838 2722 1666 2615 
Q 1494 2509 1414 2295 
Q 1334 2081 1334 1663 
L 1334 0 
L 456 0 
L 456 4581 
L 1334 4581 
z
" transform="scale(0.015625)"/>
      <path id="Arial-BoldMT-20" transform="scale(0.015625)"/>
      <path id="Arial-BoldMT-64" d="M 3503 0 
L 2688 0 
L 2688 488 
Q 2484 203 2207 64 
Q 1931 -75 1650 -75 
Q 1078 -75 670 386 
Q 263 847 263 1672 
Q 263 2516 659 2955 
Q 1056 3394 1663 3394 
Q 2219 3394 2625 2931 
L 2625 4581 
L 3503 4581 
L 3503 0 
z
M 1159 1731 
Q 1159 1200 1306 963 
Q 1519 619 1900 619 
Q 2203 619 2415 876 
Q 2628 1134 2628 1647 
Q 2628 2219 2422 2470 
Q 2216 2722 1894 2722 
Q 1581 2722 1370 2473 
Q 1159 2225 1159 1731 
z
" transform="scale(0.015625)"/>
      <path id="Arial-BoldMT-6f" d="M 256 1706 
Q 256 2144 472 2553 
Q 688 2963 1083 3178 
Q 1478 3394 1966 3394 
Q 2719 3394 3200 2905 
Q 3681 2416 3681 1669 
Q 3681 916 3195 420 
Q 2709 -75 1972 -75 
Q 1516 -75 1102 131 
Q 688 338 472 736 
Q 256 1134 256 1706 
z
M 1156 1659 
Q 1156 1166 1390 903 
Q 1625 641 1969 641 
Q 2313 641 2545 903 
Q 2778 1166 2778 1666 
Q 2778 2153 2545 2415 
Q 2313 2678 1969 2678 
Q 1625 2678 1390 2415 
Q 1156 2153 1156 1659 
z
" transform="scale(0.015625)"/>
      <path id="Arial-BoldMT-75" d="M 2644 0 
L 2644 497 
Q 2463 231 2167 78 
Q 1872 -75 1544 -75 
Q 1209 -75 943 72 
Q 678 219 559 484 
Q 441 750 441 1219 
L 441 3319 
L 1319 3319 
L 1319 1794 
Q 1319 1094 1367 936 
Q 1416 778 1544 686 
Q 1672 594 1869 594 
Q 2094 594 2272 717 
Q 2450 841 2515 1023 
Q 2581 1206 2581 1919 
L 2581 3319 
L 3459 3319 
L 3459 0 
L 2644 0 
z
" transform="scale(0.015625)"/>
      <path id="Arial-BoldMT-66" d="M 75 3319 
L 563 3319 
L 563 3569 
Q 563 3988 652 4194 
Q 741 4400 980 4529 
Q 1219 4659 1584 4659 
Q 1959 4659 2319 4547 
L 2200 3934 
Q 1991 3984 1797 3984 
Q 1606 3984 1523 3895 
Q 1441 3806 1441 3553 
L 1441 3319 
L 2097 3319 
L 2097 2628 
L 1441 2628 
L 1441 0 
L 563 0 
L 563 2628 
L 75 2628 
L 75 3319 
z
" transform="scale(0.015625)"/>
      <path id="Arial-BoldMT-69" d="M 459 3769 
L 459 4581 
L 1338 4581 
L 1338 3769 
L 459 3769 
z
M 459 0 
L 459 3319 
L 1338 3319 
L 1338 0 
L 459 0 
z
" transform="scale(0.015625)"/>
      <path id="Arial-BoldMT-6c" d="M 459 0 
L 459 4581 
L 1338 4581 
L 1338 0 
L 459 0 
z
" transform="scale(0.015625)"/>
      <path id="Arial-BoldMT-65" d="M 2381 1056 
L 3256 909 
Q 3088 428 2723 176 
Q 2359 -75 1813 -75 
Q 947 -75 531 491 
Q 203 944 203 1634 
Q 203 2459 634 2926 
Q 1066 3394 1725 3394 
Q 2466 3394 2894 2905 
Q 3322 2416 3303 1406 
L 1103 1406 
Q 1113 1016 1316 798 
Q 1519 581 1822 581 
Q 2028 581 2168 693 
Q 2309 806 2381 1056 
z
M 2431 1944 
Q 2422 2325 2234 2523 
Q 2047 2722 1778 2722 
Q 1491 2722 1303 2513 
Q 1116 2303 1119 1944 
L 2431 1944 
z
" transform="scale(0.015625)"/>
     </defs>
     <use xlink:href="#Arial-BoldMT-42"/>
     <use xlink:href="#Arial-BoldMT-72" transform="translate(72.216797 0)"/>
     <use xlink:href="#Arial-BoldMT-61" transform="translate(111.132812 0)"/>
     <use xlink:href="#Arial-BoldMT-6e" transform="translate(166.748047 0)"/>
     <use xlink:href="#Arial-BoldMT-63" transform="translate(227.832031 0)"/>
     <use xlink:href="#Arial-BoldMT-68" transform="translate(283.447266 0)"/>
     <use xlink:href="#Arial-BoldMT-20" transform="translate(344.53125 0)"/>
     <use xlink:href="#Arial-BoldMT-61" transform="translate(372.314453 0)"/>
     <use xlink:href="#Arial-BoldMT-6e" transform="translate(427.929688 0)"/>
     <use xlink:href="#Arial-BoldMT-64" transform="translate(489.013672 0)"/>
     <use xlink:href="#Arial-BoldMT-20" transform="translate(550.097656 0)"/>
     <use xlink:href="#Arial-BoldMT-42" transform="translate(577.880859 0)"/>
     <use xlink:href="#Arial-BoldMT-6f" transform="translate(650.097656 0)"/>
     <use xlink:href="#Arial-BoldMT-75" transform="translate(711.181641 0)"/>
     <use xlink:href="#Arial-BoldMT-6e" transform="translate(772.265625 0)"/>
     <use xlink:href="#Arial-BoldMT-64" transform="translate(833.349609 0)"/>
     <use xlink:href="#Arial-BoldMT-20" transform="translate(894.433594 0)"/>
     <use xlink:href="#Arial-BoldMT-66" transform="translate(922.216797 0)"/>
     <use xlink:href="#Arial-BoldMT-61" transform="translate(955.517578 0)"/>
     <use xlink:href="#Arial-BoldMT-69" transform="translate(1011.132812 0)"/>
     <use xlink:href="#Arial-BoldMT-6c" transform="translate(1038.916016 0)"/>
     <use xlink:href="#Arial-BoldMT-65" transform="translate(1066.699219 0)"/>
     <use xlink:href="#Arial-BoldMT-64" transform="translate(1122.314453 0)"/>
    </g>
    <!-- after N = 10 -->
    <g transform="translate(85.967844 191.963361) scale(0.1 -0.1)">
     <defs>
      <path id="Arial-BoldMT-74" d="M 1981 3319 
L 1981 2619 
L 1381 2619 
L 1381 1281 
Q 1381 875 1398 808 
Q 1416 741 1477 697 
Q 1538 653 1625 653 
Q 1747 653 1978 738 
L 2053 56 
Q 1747 -75 1359 -75 
Q 1122 -75 931 4 
Q 741 84 652 211 
Q 563 338 528 553 
Q 500 706 500 1172 
L 500 2619 
L 97 2619 
L 97 3319 
L 500 3319 
L 500 3978 
L 1381 4491 
L 1381 3319 
L 1981 3319 
z
" transform="scale(0.015625)"/>
      <path id="Arial-BoldMT-4e" d="M 475 0 
L 475 4581 
L 1375 4581 
L 3250 1522 
L 3250 4581 
L 4109 4581 
L 4109 0 
L 3181 0 
L 1334 2988 
L 1334 0 
L 475 0 
z
" transform="scale(0.015625)"/>
      <path id="Arial-BoldMT-3d" d="M 266 2550 
L 266 3356 
L 3469 3356 
L 3469 2550 
L 266 2550 
z
M 266 1163 
L 266 1972 
L 3469 1972 
L 3469 1163 
L 266 1163 
z
" transform="scale(0.015625)"/>
      <path id="Arial-BoldMT-31" d="M 2519 0 
L 1641 0 
L 1641 3309 
Q 1159 2859 506 2644 
L 506 3441 
Q 850 3553 1253 3867 
Q 1656 4181 1806 4600 
L 2519 4600 
L 2519 0 
z
" transform="scale(0.015625)"/>
      <path id="Arial-BoldMT-30" d="M 1756 4600 
Q 2422 4600 2797 4125 
Q 3244 3563 3244 2259 
Q 3244 959 2794 391 
Q 2422 -78 1756 -78 
Q 1088 -78 678 436 
Q 269 950 269 2269 
Q 269 3563 719 4131 
Q 1091 4600 1756 4600 
z
M 1756 3872 
Q 1597 3872 1472 3770 
Q 1347 3669 1278 3406 
Q 1188 3066 1188 2259 
Q 1188 1453 1269 1151 
Q 1350 850 1473 750 
Q 1597 650 1756 650 
Q 1916 650 2041 751 
Q 2166 853 2234 1116 
Q 2325 1453 2325 2259 
Q 2325 3066 2244 3367 
Q 2163 3669 2039 3770 
Q 1916 3872 1756 3872 
z
" transform="scale(0.015625)"/>
     </defs>
     <use xlink:href="#Arial-BoldMT-61"/>
     <use xlink:href="#Arial-BoldMT-66" transform="translate(55.615234 0)"/>
     <use xlink:href="#Arial-BoldMT-74" transform="translate(88.916016 0)"/>
     <use xlink:href="#Arial-BoldMT-65" transform="translate(122.216797 0)"/>
     <use xlink:href="#Arial-BoldMT-72" transform="translate(177.832031 0)"/>
     <use xlink:href="#Arial-BoldMT-20" transform="translate(216.748047 0)"/>
     <use xlink:href="#Arial-BoldMT-4e" transform="translate(244.53125 0)"/>
     <use xlink:href="#Arial-BoldMT-20" transform="translate(316.748047 0)"/>
     <use xlink:href="#Arial-BoldMT-3d" transform="translate(344.53125 0)"/>
     <use xlink:href="#Arial-BoldMT-20" transform="translate(402.929688 0)"/>
     <use xlink:href="#Arial-BoldMT-31" transform="translate(430.712891 0)"/>
     <use xlink:href="#Arial-BoldMT-30" transform="translate(486.328125 0)"/>
    </g>
   </g>
   <g id="text_13">
    <!-- Runtime Comparison of Algorithms -->
    <g style="fill: #262626" transform="translate(348.498 15.5862) scale(0.1152 -0.1152)">
     <defs>
      <path id="ArialMT-43" d="M 3763 1606 
L 4369 1453 
Q 4178 706 3683 314 
Q 3188 -78 2472 -78 
Q 1731 -78 1267 223 
Q 803 525 561 1097 
Q 319 1669 319 2325 
Q 319 3041 592 3573 
Q 866 4106 1370 4382 
Q 1875 4659 2481 4659 
Q 3169 4659 3637 4309 
Q 4106 3959 4291 3325 
L 3694 3184 
Q 3534 3684 3231 3912 
Q 2928 4141 2469 4141 
Q 1941 4141 1586 3887 
Q 1231 3634 1087 3207 
Q 944 2781 944 2328 
Q 944 1744 1114 1308 
Q 1284 872 1643 656 
Q 2003 441 2422 441 
Q 2931 441 3284 734 
Q 3638 1028 3763 1606 
z
" transform="scale(0.015625)"/>
      <path id="ArialMT-70" d="M 422 -1272 
L 422 3319 
L 934 3319 
L 934 2888 
Q 1116 3141 1344 3267 
Q 1572 3394 1897 3394 
Q 2322 3394 2647 3175 
Q 2972 2956 3137 2557 
Q 3303 2159 3303 1684 
Q 3303 1175 3120 767 
Q 2938 359 2589 142 
Q 2241 -75 1856 -75 
Q 1575 -75 1351 44 
Q 1128 163 984 344 
L 984 -1272 
L 422 -1272 
z
M 931 1641 
Q 931 1000 1190 694 
Q 1450 388 1819 388 
Q 2194 388 2461 705 
Q 2728 1022 2728 1688 
Q 2728 2322 2467 2637 
Q 2206 2953 1844 2953 
Q 1484 2953 1207 2617 
Q 931 2281 931 1641 
z
" transform="scale(0.015625)"/>
      <path id="ArialMT-61" d="M 2588 409 
Q 2275 144 1986 34 
Q 1697 -75 1366 -75 
Q 819 -75 525 192 
Q 231 459 231 875 
Q 231 1119 342 1320 
Q 453 1522 633 1644 
Q 813 1766 1038 1828 
Q 1203 1872 1538 1913 
Q 2219 1994 2541 2106 
Q 2544 2222 2544 2253 
Q 2544 2597 2384 2738 
Q 2169 2928 1744 2928 
Q 1347 2928 1158 2789 
Q 969 2650 878 2297 
L 328 2372 
Q 403 2725 575 2942 
Q 747 3159 1072 3276 
Q 1397 3394 1825 3394 
Q 2250 3394 2515 3294 
Q 2781 3194 2906 3042 
Q 3031 2891 3081 2659 
Q 3109 2516 3109 2141 
L 3109 1391 
Q 3109 606 3145 398 
Q 3181 191 3288 0 
L 2700 0 
Q 2613 175 2588 409 
z
M 2541 1666 
Q 2234 1541 1622 1453 
Q 1275 1403 1131 1340 
Q 988 1278 909 1158 
Q 831 1038 831 891 
Q 831 666 1001 516 
Q 1172 366 1500 366 
Q 1825 366 2078 508 
Q 2331 650 2450 897 
Q 2541 1088 2541 1459 
L 2541 1666 
z
" transform="scale(0.015625)"/>
      <path id="ArialMT-41" d="M -9 0 
L 1750 4581 
L 2403 4581 
L 4278 0 
L 3588 0 
L 3053 1388 
L 1138 1388 
L 634 0 
L -9 0 
z
M 1313 1881 
L 2866 1881 
L 2388 3150 
Q 2169 3728 2063 4100 
Q 1975 3659 1816 3225 
L 1313 1881 
z
" transform="scale(0.015625)"/>
      <path id="ArialMT-6c" d="M 409 0 
L 409 4581 
L 972 4581 
L 972 0 
L 409 0 
z
" transform="scale(0.015625)"/>
      <path id="ArialMT-67" d="M 319 -275 
L 866 -356 
Q 900 -609 1056 -725 
Q 1266 -881 1628 -881 
Q 2019 -881 2231 -725 
Q 2444 -569 2519 -288 
Q 2563 -116 2559 434 
Q 2191 0 1641 0 
Q 956 0 581 494 
Q 206 988 206 1678 
Q 206 2153 378 2554 
Q 550 2956 876 3175 
Q 1203 3394 1644 3394 
Q 2231 3394 2613 2919 
L 2613 3319 
L 3131 3319 
L 3131 450 
Q 3131 -325 2973 -648 
Q 2816 -972 2473 -1159 
Q 2131 -1347 1631 -1347 
Q 1038 -1347 672 -1080 
Q 306 -813 319 -275 
z
M 784 1719 
Q 784 1066 1043 766 
Q 1303 466 1694 466 
Q 2081 466 2343 764 
Q 2606 1063 2606 1700 
Q 2606 2309 2336 2618 
Q 2066 2928 1684 2928 
Q 1309 2928 1046 2623 
Q 784 2319 784 1719 
z
" transform="scale(0.015625)"/>
      <path id="ArialMT-68" d="M 422 0 
L 422 4581 
L 984 4581 
L 984 2938 
Q 1378 3394 1978 3394 
Q 2347 3394 2619 3248 
Q 2891 3103 3008 2847 
Q 3125 2591 3125 2103 
L 3125 0 
L 2563 0 
L 2563 2103 
Q 2563 2525 2380 2717 
Q 2197 2909 1863 2909 
Q 1613 2909 1392 2779 
Q 1172 2650 1078 2428 
Q 984 2206 984 1816 
L 984 0 
L 422 0 
z
" transform="scale(0.015625)"/>
     </defs>
     <use xlink:href="#ArialMT-52"/>
     <use xlink:href="#ArialMT-75" transform="translate(72.216797 0)"/>
     <use xlink:href="#ArialMT-6e" transform="translate(127.832031 0)"/>
     <use xlink:href="#ArialMT-74" transform="translate(183.447266 0)"/>
     <use xlink:href="#ArialMT-69" transform="translate(211.230469 0)"/>
     <use xlink:href="#ArialMT-6d" transform="translate(233.447266 0)"/>
     <use xlink:href="#ArialMT-65" transform="translate(316.748047 0)"/>
     <use xlink:href="#ArialMT-20" transform="translate(372.363281 0)"/>
     <use xlink:href="#ArialMT-43" transform="translate(400.146484 0)"/>
     <use xlink:href="#ArialMT-6f" transform="translate(472.363281 0)"/>
     <use xlink:href="#ArialMT-6d" transform="translate(527.978516 0)"/>
     <use xlink:href="#ArialMT-70" transform="translate(611.279297 0)"/>
     <use xlink:href="#ArialMT-61" transform="translate(666.894531 0)"/>
     <use xlink:href="#ArialMT-72" transform="translate(722.509766 0)"/>
     <use xlink:href="#ArialMT-69" transform="translate(755.810547 0)"/>
     <use xlink:href="#ArialMT-73" transform="translate(778.027344 0)"/>
     <use xlink:href="#ArialMT-6f" transform="translate(828.027344 0)"/>
     <use xlink:href="#ArialMT-6e" transform="translate(883.642578 0)"/>
     <use xlink:href="#ArialMT-20" transform="translate(939.257812 0)"/>
     <use xlink:href="#ArialMT-6f" transform="translate(967.041016 0)"/>
     <use xlink:href="#ArialMT-66" transform="translate(1022.65625 0)"/>
     <use xlink:href="#ArialMT-20" transform="translate(1050.439453 0)"/>
     <use xlink:href="#ArialMT-41" transform="translate(1072.722656 0)"/>
     <use xlink:href="#ArialMT-6c" transform="translate(1139.421875 0)"/>
     <use xlink:href="#ArialMT-67" transform="translate(1161.638672 0)"/>
     <use xlink:href="#ArialMT-6f" transform="translate(1217.253906 0)"/>
     <use xlink:href="#ArialMT-72" transform="translate(1272.869141 0)"/>
     <use xlink:href="#ArialMT-69" transform="translate(1306.169922 0)"/>
     <use xlink:href="#ArialMT-74" transform="translate(1328.386719 0)"/>
     <use xlink:href="#ArialMT-68" transform="translate(1356.169922 0)"/>
     <use xlink:href="#ArialMT-6d" transform="translate(1411.785156 0)"/>
     <use xlink:href="#ArialMT-73" transform="translate(1495.085938 0)"/>
    </g>
   </g>
   <g id="legend_1">
    <g id="patch_6">
     <path d="M 54.282 134.8488 
L 175.54875 134.8488 
Q 177.66075 134.8488 177.66075 132.7368 
L 177.66075 28.9782 
Q 177.66075 26.8662 175.54875 26.8662 
L 54.282 26.8662 
Q 52.17 26.8662 52.17 28.9782 
L 52.17 132.7368 
Q 52.17 134.8488 54.282 134.8488 
z
" style="fill: #ffffff; opacity: 0.8; stroke: #cccccc; stroke-width: 0.8; stroke-linejoin: miter"/>
    </g>
    <g id="line2d_41">
     <path d="M 56.394 34.95285 
L 66.954 34.95285 
L 77.514 34.95285 
" style="fill: none; stroke: #64614f; stroke-width: 1.2; stroke-linecap: round"/>
     <g>
      <use xlink:href="#mdb096c26b2" x="66.954" y="34.95285" style="fill: #64614f; stroke: #64614f"/>
     </g>
    </g>
    <g id="text_14">
     <!-- Branch and Bound -->
     <g style="fill: #262626" transform="translate(85.962 38.64885) scale(0.1056 -0.1056)">
      <defs>
       <path id="ArialMT-42" d="M 469 0 
L 469 4581 
L 2188 4581 
Q 2713 4581 3030 4442 
Q 3347 4303 3526 4014 
Q 3706 3725 3706 3409 
Q 3706 3116 3547 2856 
Q 3388 2597 3066 2438 
Q 3481 2316 3704 2022 
Q 3928 1728 3928 1328 
Q 3928 1006 3792 729 
Q 3656 453 3456 303 
Q 3256 153 2954 76 
Q 2653 0 2216 0 
L 469 0 
z
M 1075 2656 
L 2066 2656 
Q 2469 2656 2644 2709 
Q 2875 2778 2992 2937 
Q 3109 3097 3109 3338 
Q 3109 3566 3000 3739 
Q 2891 3913 2687 3977 
Q 2484 4041 1991 4041 
L 1075 4041 
L 1075 2656 
z
M 1075 541 
L 2216 541 
Q 2509 541 2628 563 
Q 2838 600 2978 687 
Q 3119 775 3209 942 
Q 3300 1109 3300 1328 
Q 3300 1584 3169 1773 
Q 3038 1963 2805 2039 
Q 2572 2116 2134 2116 
L 1075 2116 
L 1075 541 
z
" transform="scale(0.015625)"/>
      </defs>
      <use xlink:href="#ArialMT-42"/>
      <use xlink:href="#ArialMT-72" transform="translate(66.699219 0)"/>
      <use xlink:href="#ArialMT-61" transform="translate(100 0)"/>
      <use xlink:href="#ArialMT-6e" transform="translate(155.615234 0)"/>
      <use xlink:href="#ArialMT-63" transform="translate(211.230469 0)"/>
      <use xlink:href="#ArialMT-68" transform="translate(261.230469 0)"/>
      <use xlink:href="#ArialMT-20" transform="translate(316.845703 0)"/>
      <use xlink:href="#ArialMT-61" transform="translate(344.628906 0)"/>
      <use xlink:href="#ArialMT-6e" transform="translate(400.244141 0)"/>
      <use xlink:href="#ArialMT-64" transform="translate(455.859375 0)"/>
      <use xlink:href="#ArialMT-20" transform="translate(511.474609 0)"/>
      <use xlink:href="#ArialMT-42" transform="translate(539.257812 0)"/>
      <use xlink:href="#ArialMT-6f" transform="translate(605.957031 0)"/>
      <use xlink:href="#ArialMT-75" transform="translate(661.572266 0)"/>
      <use xlink:href="#ArialMT-6e" transform="translate(717.1875 0)"/>
      <use xlink:href="#ArialMT-64" transform="translate(772.802734 0)"/>
     </g>
    </g>
    <g id="line2d_42">
     <path d="M 56.394 49.8903 
L 66.954 49.8903 
L 77.514 49.8903 
" style="fill: none; stroke-dasharray: 4.44,1.92; stroke-dashoffset: 0; stroke: #4363d8; stroke-width: 1.2"/>
     <g>
      <use xlink:href="#m31f1697a6a" x="66.954" y="49.8903" style="fill: #4363d8; stroke: #4363d8"/>
     </g>
    </g>
    <g id="text_15">
     <!-- CP -->
     <g style="fill: #262626" transform="translate(85.962 53.5863) scale(0.1056 -0.1056)">
      <defs>
       <path id="ArialMT-50" d="M 494 0 
L 494 4581 
L 2222 4581 
Q 2678 4581 2919 4538 
Q 3256 4481 3484 4323 
Q 3713 4166 3852 3881 
Q 3991 3597 3991 3256 
Q 3991 2672 3619 2267 
Q 3247 1863 2275 1863 
L 1100 1863 
L 1100 0 
L 494 0 
z
M 1100 2403 
L 2284 2403 
Q 2872 2403 3119 2622 
Q 3366 2841 3366 3238 
Q 3366 3525 3220 3729 
Q 3075 3934 2838 4000 
Q 2684 4041 2272 4041 
L 1100 4041 
L 1100 2403 
z
" transform="scale(0.015625)"/>
      </defs>
      <use xlink:href="#ArialMT-43"/>
      <use xlink:href="#ArialMT-50" transform="translate(72.216797 0)"/>
     </g>
    </g>
    <g id="line2d_43">
     <path d="M 56.394 64.82775 
L 66.954 64.82775 
L 77.514 64.82775 
" style="fill: none; stroke-dasharray: 7.68,1.92,1.2,1.92; stroke-dashoffset: 0; stroke: #9db0f3; stroke-width: 1.2"/>
     <g>
      <use xlink:href="#m73900aa3da" x="66.954" y="64.82775" style="fill: #9db0f3; stroke: #9db0f3; stroke-linejoin: miter"/>
     </g>
    </g>
    <g id="text_16">
     <!-- MIP -->
     <g style="fill: #262626" transform="translate(85.962 68.52375) scale(0.1056 -0.1056)">
      <defs>
       <path id="ArialMT-4d" d="M 475 0 
L 475 4581 
L 1388 4581 
L 2472 1338 
Q 2622 884 2691 659 
Q 2769 909 2934 1394 
L 4031 4581 
L 4847 4581 
L 4847 0 
L 4263 0 
L 4263 3834 
L 2931 0 
L 2384 0 
L 1059 3900 
L 1059 0 
L 475 0 
z
" transform="scale(0.015625)"/>
       <path id="ArialMT-49" d="M 597 0 
L 597 4581 
L 1203 4581 
L 1203 0 
L 597 0 
z
" transform="scale(0.015625)"/>
      </defs>
      <use xlink:href="#ArialMT-4d"/>
      <use xlink:href="#ArialMT-49" transform="translate(83.300781 0)"/>
      <use xlink:href="#ArialMT-50" transform="translate(111.083984 0)"/>
     </g>
    </g>
    <g id="line2d_44">
     <path d="M 56.394 79.8939 
L 66.954 79.8939 
L 77.514 79.8939 
" style="fill: none; stroke-dasharray: 1.2,1.98; stroke-dashoffset: 0; stroke: #911eb4; stroke-width: 1.2"/>
     <g>
      <use xlink:href="#m2078d8959a" x="66.954" y="79.8939" style="fill: #911eb4; stroke: #911eb4; stroke-linejoin: miter"/>
     </g>
    </g>
    <g id="text_17">
     <!-- Greedy -->
     <g style="fill: #262626" transform="translate(85.962 83.5899) scale(0.1056 -0.1056)">
      <defs>
       <path id="ArialMT-47" d="M 2638 1797 
L 2638 2334 
L 4578 2338 
L 4578 638 
Q 4131 281 3656 101 
Q 3181 -78 2681 -78 
Q 2006 -78 1454 211 
Q 903 500 622 1047 
Q 341 1594 341 2269 
Q 341 2938 620 3517 
Q 900 4097 1425 4378 
Q 1950 4659 2634 4659 
Q 3131 4659 3532 4498 
Q 3934 4338 4162 4050 
Q 4391 3763 4509 3300 
L 3963 3150 
Q 3859 3500 3706 3700 
Q 3553 3900 3268 4020 
Q 2984 4141 2638 4141 
Q 2222 4141 1919 4014 
Q 1616 3888 1430 3681 
Q 1244 3475 1141 3228 
Q 966 2803 966 2306 
Q 966 1694 1177 1281 
Q 1388 869 1791 669 
Q 2194 469 2647 469 
Q 3041 469 3416 620 
Q 3791 772 3984 944 
L 3984 1797 
L 2638 1797 
z
" transform="scale(0.015625)"/>
       <path id="ArialMT-79" d="M 397 -1278 
L 334 -750 
Q 519 -800 656 -800 
Q 844 -800 956 -737 
Q 1069 -675 1141 -563 
Q 1194 -478 1313 -144 
Q 1328 -97 1363 -6 
L 103 3319 
L 709 3319 
L 1400 1397 
Q 1534 1031 1641 628 
Q 1738 1016 1872 1384 
L 2581 3319 
L 3144 3319 
L 1881 -56 
Q 1678 -603 1566 -809 
Q 1416 -1088 1222 -1217 
Q 1028 -1347 759 -1347 
Q 597 -1347 397 -1278 
z
" transform="scale(0.015625)"/>
      </defs>
      <use xlink:href="#ArialMT-47"/>
      <use xlink:href="#ArialMT-72" transform="translate(77.783203 0)"/>
      <use xlink:href="#ArialMT-65" transform="translate(111.083984 0)"/>
      <use xlink:href="#ArialMT-65" transform="translate(166.699219 0)"/>
      <use xlink:href="#ArialMT-64" transform="translate(222.314453 0)"/>
      <use xlink:href="#ArialMT-79" transform="translate(277.929688 0)"/>
     </g>
    </g>
    <g id="line2d_45">
     <path d="M 56.394 94.9551 
L 66.954 94.9551 
L 77.514 94.9551 
" style="fill: none; stroke: #247878; stroke-width: 1.2; stroke-linecap: round"/>
     <g>
      <use xlink:href="#m8b33dd2676" x="66.954" y="94.9551" style="fill: #247878; stroke: #247878; stroke-linejoin: miter"/>
     </g>
    </g>
    <g id="text_18">
     <!-- Local Search -->
     <g style="fill: #262626" transform="translate(85.962 98.6511) scale(0.1056 -0.1056)">
      <defs>
       <path id="ArialMT-4c" d="M 469 0 
L 469 4581 
L 1075 4581 
L 1075 541 
L 3331 541 
L 3331 0 
L 469 0 
z
" transform="scale(0.015625)"/>
       <path id="ArialMT-53" d="M 288 1472 
L 859 1522 
Q 900 1178 1048 958 
Q 1197 738 1509 602 
Q 1822 466 2213 466 
Q 2559 466 2825 569 
Q 3091 672 3220 851 
Q 3350 1031 3350 1244 
Q 3350 1459 3225 1620 
Q 3100 1781 2813 1891 
Q 2628 1963 1997 2114 
Q 1366 2266 1113 2400 
Q 784 2572 623 2826 
Q 463 3081 463 3397 
Q 463 3744 659 4045 
Q 856 4347 1234 4503 
Q 1613 4659 2075 4659 
Q 2584 4659 2973 4495 
Q 3363 4331 3572 4012 
Q 3781 3694 3797 3291 
L 3216 3247 
Q 3169 3681 2898 3903 
Q 2628 4125 2100 4125 
Q 1550 4125 1298 3923 
Q 1047 3722 1047 3438 
Q 1047 3191 1225 3031 
Q 1400 2872 2139 2705 
Q 2878 2538 3153 2413 
Q 3553 2228 3743 1945 
Q 3934 1663 3934 1294 
Q 3934 928 3725 604 
Q 3516 281 3123 101 
Q 2731 -78 2241 -78 
Q 1619 -78 1198 103 
Q 778 284 539 648 
Q 300 1013 288 1472 
z
" transform="scale(0.015625)"/>
      </defs>
      <use xlink:href="#ArialMT-4c"/>
      <use xlink:href="#ArialMT-6f" transform="translate(55.615234 0)"/>
      <use xlink:href="#ArialMT-63" transform="translate(111.230469 0)"/>
      <use xlink:href="#ArialMT-61" transform="translate(161.230469 0)"/>
      <use xlink:href="#ArialMT-6c" transform="translate(216.845703 0)"/>
      <use xlink:href="#ArialMT-20" transform="translate(239.0625 0)"/>
      <use xlink:href="#ArialMT-53" transform="translate(266.845703 0)"/>
      <use xlink:href="#ArialMT-65" transform="translate(333.544922 0)"/>
      <use xlink:href="#ArialMT-61" transform="translate(389.160156 0)"/>
      <use xlink:href="#ArialMT-72" transform="translate(444.775391 0)"/>
      <use xlink:href="#ArialMT-63" transform="translate(478.076172 0)"/>
      <use xlink:href="#ArialMT-68" transform="translate(528.076172 0)"/>
     </g>
    </g>
    <g id="line2d_46">
     <path d="M 56.394 109.89255 
L 66.954 109.89255 
L 77.514 109.89255 
" style="fill: none; stroke-dasharray: 4.44,1.92; stroke-dashoffset: 0; stroke: #77aa82; stroke-width: 1.2"/>
     <g>
      <use xlink:href="#m0c706094c6" x="66.954" y="109.89255" style="fill: #77aa82; stroke: #77aa82; stroke-linejoin: miter"/>
     </g>
    </g>
    <g id="text_19">
     <!-- ACO -->
     <g style="fill: #262626" transform="translate(85.962 113.58855) scale(0.1056 -0.1056)">
      <defs>
       <path id="ArialMT-4f" d="M 309 2231 
Q 309 3372 921 4017 
Q 1534 4663 2503 4663 
Q 3138 4663 3647 4359 
Q 4156 4056 4423 3514 
Q 4691 2972 4691 2284 
Q 4691 1588 4409 1038 
Q 4128 488 3612 205 
Q 3097 -78 2500 -78 
Q 1853 -78 1343 234 
Q 834 547 571 1087 
Q 309 1628 309 2231 
z
M 934 2222 
Q 934 1394 1379 917 
Q 1825 441 2497 441 
Q 3181 441 3623 922 
Q 4066 1403 4066 2288 
Q 4066 2847 3877 3264 
Q 3688 3681 3323 3911 
Q 2959 4141 2506 4141 
Q 1863 4141 1398 3698 
Q 934 3256 934 2222 
z
" transform="scale(0.015625)"/>
      </defs>
      <use xlink:href="#ArialMT-41"/>
      <use xlink:href="#ArialMT-43" transform="translate(66.699219 0)"/>
      <use xlink:href="#ArialMT-4f" transform="translate(138.916016 0)"/>
     </g>
    </g>
    <g id="line2d_47">
     <path d="M 56.394 124.83 
L 66.954 124.83 
L 77.514 124.83 
" style="fill: none; stroke-dasharray: 7.68,1.92,1.2,1.92; stroke-dashoffset: 0; stroke: #5387bf; stroke-width: 1.2"/>
     <g>
      <use xlink:href="#m912c68876d" x="66.954" y="124.83" style="fill: #5387bf; stroke: #5387bf; stroke-linejoin: bevel"/>
     </g>
    </g>
    <g id="text_20">
     <!-- ALNS -->
     <g style="fill: #262626" transform="translate(85.962 128.526) scale(0.1056 -0.1056)">
      <use xlink:href="#ArialMT-41"/>
      <use xlink:href="#ArialMT-4c" transform="translate(66.699219 0)"/>
      <use xlink:href="#ArialMT-4e" transform="translate(122.314453 0)"/>
      <use xlink:href="#ArialMT-53" transform="translate(194.53125 0)"/>
     </g>
    </g>
   </g>
  </g>
 </g>
 <defs>
  <clipPath id="pa697457c69">
   <rect x="46.89" y="21.5862" width="781.2" height="443.52"/>
  </clipPath>
 </defs>
</svg>
